<svg width="44" height="44" viewBox="0 0 44 44" fill="none" xmlns="http://www.w3.org/2000/svg">
<path d="M42.4188 10.3842C41.7713 8.91568 40.9214 7.54508 39.8937 6.31233L34.4469 11.7592C35.722 12.5138 37.2241 12.7899 38.6842 12.538C40.1444 12.286 41.4671 11.5225 42.4156 10.3842M32.2344 9.54983L37.6812 4.10295C36.4495 3.07555 35.0799 2.22564 33.6125 1.57795C32.4734 2.52661 31.7094 3.84994 31.4574 5.31077C31.2055 6.77159 31.482 8.27439 32.2375 9.54983M28.25 6.37483C28.25 8.39983 28.8938 10.2748 29.9844 11.8061L27.4688 14.3217L16.5688 3.41858C18.5274 1.99562 20.7637 1.00089 23.1322 0.4991C25.5006 -0.00269245 27.9482 -0.000314586 30.3156 0.506079C28.9791 2.17016 28.2504 4.24048 28.25 6.37483ZM29.6781 16.5311L32.1937 14.0155C33.725 15.1092 35.6 15.7498 37.625 15.7498C39.759 15.7503 41.8293 15.0227 43.4938 13.6873C43.7458 14.8582 43.8729 16.0665 43.875 17.3123C43.875 21.0936 42.6531 24.5936 40.5812 27.4342L29.6781 16.5311ZM38.5125 29.7842L27.4688 18.7405L25.5781 20.6311C28.8281 24.3357 30.8223 28.9738 31.275 33.8811C34.025 33.1217 36.5 31.6905 38.5125 29.7842ZM10.1156 12.7248C10.875 9.97483 12.3031 7.49983 14.2094 5.48733L25.2594 16.5311L23.3687 18.4217C19.6641 15.1717 15.0229 13.1776 10.1156 12.7248ZM4.8125 15.7498C3.5693 15.7498 2.37701 16.2437 1.49794 17.1228C0.61886 18.0018 0.125 19.1941 0.125 20.4373V23.5623C0.125 28.9495 2.26506 34.1161 6.07439 37.9254C9.88373 41.7348 15.0503 43.8748 20.4375 43.8748H23.5625C24.8057 43.8748 25.998 43.381 26.8771 42.5019C27.7561 41.6228 28.25 40.4305 28.25 39.1873V36.0623C28.25 30.6751 26.1099 25.5086 22.3006 21.6992C18.4913 17.8899 13.3247 15.7498 7.9375 15.7498H4.8125ZM10.7375 26.3623C10.8826 26.2168 11.0551 26.1014 11.2449 26.0226C11.4347 25.9438 11.6382 25.9033 11.8438 25.9033C12.0493 25.9033 12.2528 25.9438 12.4426 26.0226C12.6324 26.1014 12.8049 26.2168 12.95 26.3623L17.6375 31.0498C17.7828 31.1951 17.898 31.3676 17.9766 31.5574C18.0553 31.7472 18.0957 31.9506 18.0957 32.1561C18.0957 32.3615 18.0553 32.565 17.9766 32.7548C17.898 32.9446 17.7828 33.1171 17.6375 33.2623C17.4922 33.4076 17.3198 33.5228 17.1299 33.6015C16.9401 33.6801 16.7367 33.7206 16.5312 33.7206C16.3258 33.7206 16.1224 33.6801 15.9326 33.6015C15.7427 33.5228 15.5703 33.4076 15.425 33.2623L10.7375 28.5748C10.592 28.4297 10.4765 28.2573 10.3978 28.0674C10.319 27.8776 10.2785 27.6741 10.2785 27.4686C10.2785 27.2631 10.319 27.0596 10.3978 26.8697C10.4765 26.6799 10.592 26.5075 10.7375 26.3623Z" fill="white"/>
</svg>
