<svg width="38" height="38" viewBox="0 0 38 38" fill="none" xmlns="http://www.w3.org/2000/svg">
<path d="M19.0001 0.666504C29.1256 0.666504 37.3334 8.87434 37.3334 18.9998C37.3334 29.1253 29.1256 37.3332 19.0001 37.3332C8.87458 37.3332 0.666748 29.1253 0.666748 18.9998C0.666748 8.87434 8.87458 0.666504 19.0001 0.666504ZM19.0001 7.99984C18.5139 7.99984 18.0475 8.19299 17.7037 8.53681C17.3599 8.88063 17.1667 9.34694 17.1667 9.83317V18.9998C17.1669 19.486 17.3601 19.9523 17.7039 20.296L23.2039 25.796C23.5497 26.13 24.0128 26.3148 24.4935 26.3106C24.9742 26.3064 25.434 26.1136 25.7739 25.7737C26.1138 25.4338 26.3066 24.9739 26.3108 24.4932C26.315 24.0125 26.1302 23.5494 25.7962 23.2037L20.8334 18.2408V9.83317C20.8334 9.34694 20.6403 8.88063 20.2964 8.53681C19.9526 8.19299 19.4863 7.99984 19.0001 7.99984Z" fill="url(#paint0_linear_27_156)"/>
<defs>
<linearGradient id="paint0_linear_27_156" x1="-5.99992" y1="19.2908" x2="37.3334" y2="19.2908" gradientUnits="userSpaceOnUse">
<stop stop-color="#FF5637"/>
<stop offset="1" stop-color="#F7084C"/>
</linearGradient>
</defs>
</svg>
