<svg width="26" height="38" viewBox="0 0 26 38" fill="none" xmlns="http://www.w3.org/2000/svg">
<path d="M13.0001 18.0832C11.7845 18.0832 10.6187 17.6003 9.75918 16.7407C8.89963 15.8812 8.41675 14.7154 8.41675 13.4998C8.41675 12.2843 8.89963 11.1185 9.75918 10.2589C10.6187 9.39939 11.7845 8.9165 13.0001 8.9165C14.2157 8.9165 15.3814 9.39939 16.241 10.2589C17.1005 11.1185 17.5834 12.2843 17.5834 13.4998C17.5834 14.1017 17.4649 14.6977 17.2345 15.2538C17.0042 15.8099 16.6666 16.3151 16.241 16.7407C15.8154 17.1663 15.3101 17.504 14.754 17.7343C14.198 17.9646 13.602 18.0832 13.0001 18.0832ZM13.0001 0.666504C9.59647 0.666504 6.33226 2.01858 3.92554 4.4253C1.51883 6.83202 0.166748 10.0962 0.166748 13.4998C0.166748 23.1248 13.0001 37.3332 13.0001 37.3332C13.0001 37.3332 25.8334 23.1248 25.8334 13.4998C25.8334 10.0962 24.4813 6.83202 22.0746 4.4253C19.6679 2.01858 16.4037 0.666504 13.0001 0.666504Z" fill="url(#paint0_linear_27_161)"/>
<defs>
<linearGradient id="paint0_linear_27_161" x1="-4.49992" y1="19.2908" x2="25.8334" y2="19.2908" gradientUnits="userSpaceOnUse">
<stop stop-color="#FF5637"/>
<stop offset="1" stop-color="#F7084C"/>
</linearGradient>
</defs>
</svg>
